<svg xmlns="http://www.w3.org/2000/svg" style="display:none">
<!-- Purrtion cat profile icons, 24x24, ink outline 1.6, brand pastels. -->
  <symbol id="icon-moon" viewBox="0 0 24 24"><path d="M14.6 3.8 A8.4 8.4 0 1 0 20.2 15.6 A6.6 6.6 0 0 1 14.6 3.8 Z" fill="#F5CF6B" stroke="#2B2541" stroke-width="1.6" stroke-linejoin="round" stroke-linecap="round"/><circle cx="18.6" cy="5.4" r="1" fill="#2B2541"/></symbol>
  <symbol id="icon-scale" viewBox="0 0 24 24"><path d="M5.4 9.2 H18.6 C18.1 12.4 15.4 13.6 12 13.6 C8.6 13.6 5.9 12.4 5.4 9.2 Z" fill="#F4A9C2" stroke="#2B2541" stroke-width="1.6" stroke-linejoin="round" stroke-linecap="round"/><rect x="4.6" y="14.2" width="14.8" height="6.4" rx="2.2" fill="#8DBDEB" stroke="#2B2541" stroke-width="1.6" stroke-linejoin="round" stroke-linecap="round"/><circle cx="12" cy="17.4" r="1.7" fill="#FFFFFF" stroke="#2B2541" stroke-width="1.3" stroke-linejoin="round" stroke-linecap="round"/></symbol>
  <symbol id="icon-dango" viewBox="0 0 24 24"><path d="M5.5 21 L19 3.5" fill="none" stroke="#B58A5A" stroke-width="1.8" stroke-linecap="round"/><circle cx="8.6" cy="17" r="3.3" fill="#7CC49A" stroke="#2B2541" stroke-width="1.6" stroke-linejoin="round" stroke-linecap="round"/><circle cx="12.25" cy="12.25" r="3.3" fill="#FFFFFF" stroke="#2B2541" stroke-width="1.6" stroke-linejoin="round" stroke-linecap="round"/><circle cx="15.9" cy="7.5" r="3.3" fill="#F4A9C2" stroke="#2B2541" stroke-width="1.6" stroke-linejoin="round" stroke-linecap="round"/><circle cx="11.2" cy="12.2" r=".55" fill="#2B2541"/><circle cx="13.3" cy="12.2" r=".55" fill="#2B2541"/></symbol>
  <symbol id="icon-stripes" viewBox="0 0 24 24"><path d="M5.2 9.6 L5.6 4.4 L9.6 6.9 Z M18.8 9.6 L18.4 4.4 L14.4 6.9 Z" fill="#F4B36A" stroke="#2B2541" stroke-width="1.6" stroke-linejoin="round" stroke-linecap="round"/><circle cx="12" cy="13" r="7.6" fill="#F4B36A" stroke="#2B2541" stroke-width="1.6" stroke-linejoin="round" stroke-linecap="round"/><path d="M10.6 6.2 L11 8.4 M12 5.6 V8.4 M13.4 6.2 L13 8.4 M4.8 13 H7.2 M5 15.2 H7.4 M19.2 13 H16.8 M19 15.2 H16.6" fill="none" stroke="#2B2541" stroke-width="1.3" stroke-linejoin="round" stroke-linecap="round"/><circle cx="9.6" cy="12.4" r=".95" fill="#2B2541"/><circle cx="14.4" cy="12.4" r=".95" fill="#2B2541"/><path d="M11 15.2 q.5 .7 1 0 q.5 .7 1 0" fill="none" stroke="#2B2541" stroke-width="1.1" stroke-linejoin="round" stroke-linecap="round"/></symbol>
  <symbol id="icon-bolt" viewBox="0 0 24 24"><path d="M13.6 2.8 L5.8 13.4 H11.2 L10 21.2 L18.2 9.8 H12.8 Z" fill="#F5CF6B" stroke="#2B2541" stroke-width="1.6" stroke-linejoin="round" stroke-linecap="round"/></symbol>
  <symbol id="icon-paw" viewBox="0 0 24 24"><ellipse cx="12" cy="15.6" rx="4.4" ry="3.7" fill="#F4A9C2" stroke="#2B2541" stroke-width="1.6" stroke-linejoin="round" stroke-linecap="round"/><circle cx="6.4" cy="10.6" r="1.9" fill="#F4A9C2" stroke="#2B2541" stroke-width="1.6" stroke-linejoin="round" stroke-linecap="round"/><circle cx="9.9" cy="7" r="1.9" fill="#F4A9C2" stroke="#2B2541" stroke-width="1.6" stroke-linejoin="round" stroke-linecap="round"/><circle cx="14.1" cy="7" r="1.9" fill="#F4A9C2" stroke="#2B2541" stroke-width="1.6" stroke-linejoin="round" stroke-linecap="round"/><circle cx="17.6" cy="10.6" r="1.9" fill="#F4A9C2" stroke="#2B2541" stroke-width="1.6" stroke-linejoin="round" stroke-linecap="round"/></symbol>
  <symbol id="icon-fish" viewBox="0 0 24 24"><path d="M3.6 12 C6.6 6.8 13.6 6.8 16.8 12 C13.6 17.2 6.6 17.2 3.6 12 Z" fill="#8DBDEB" stroke="#2B2541" stroke-width="1.6" stroke-linejoin="round" stroke-linecap="round"/><path d="M16.8 12 L20.6 8.4 V15.6 Z" fill="#8DBDEB" stroke="#2B2541" stroke-width="1.6" stroke-linejoin="round" stroke-linecap="round"/><circle cx="7.6" cy="11.2" r=".9" fill="#2B2541"/><path d="M11.4 9.6 Q12.8 12 11.4 14.4" fill="none" stroke-width="1.2" stroke="#2B2541" stroke-linejoin="round" stroke-linecap="round"/></symbol>
  <symbol id="icon-yarn" viewBox="0 0 24 24"><circle cx="11" cy="11" r="7.4" fill="#F4A9C2" stroke="#2B2541" stroke-width="1.6" stroke-linejoin="round" stroke-linecap="round"/><path d="M5.4 7.8 Q11 9.4 15.6 5.4 M4.4 12.4 Q11 13 17.6 8.8 M6.6 16.8 Q12.4 15.6 17.8 12.6" fill="none" stroke-width="1.2" stroke="#2B2541" stroke-linejoin="round" stroke-linecap="round"/><path d="M16.2 16.2 Q19.6 17.4 19.4 21" fill="none" stroke="#2B2541" stroke-width="1.6" stroke-linejoin="round" stroke-linecap="round"/></symbol>
  <symbol id="icon-star" viewBox="0 0 24 24"><path d="M12 3.4 L14.5 8.6 L20.2 9.3 L16 13.2 L17.1 18.8 L12 16 L6.9 18.8 L8 13.2 L3.8 9.3 L9.5 8.6 Z" fill="#F5CF6B" stroke="#2B2541" stroke-width="1.6" stroke-linejoin="round" stroke-linecap="round"/></symbol>
  <symbol id="icon-heart" viewBox="0 0 24 24"><path d="M12 20 C5.4 15.4 3.6 11.4 5.4 8.2 C7.2 5.2 10.8 5.6 12 8.4 C13.2 5.6 16.8 5.2 18.6 8.2 C20.4 11.4 18.6 15.4 12 20 Z" fill="#E8779E" stroke="#2B2541" stroke-width="1.6" stroke-linejoin="round" stroke-linecap="round"/></symbol>
  <symbol id="icon-leaf" viewBox="0 0 24 24"><path d="M4.8 19.2 C4.8 10.2 9.8 4.8 19.2 4.8 C19.2 14.2 13.8 19.2 4.8 19.2 Z" fill="#7CC49A" stroke="#2B2541" stroke-width="1.6" stroke-linejoin="round" stroke-linecap="round"/><path d="M5.6 18.4 L14.4 9.6" fill="none" stroke-width="1.3" stroke="#2B2541" stroke-linejoin="round" stroke-linecap="round"/></symbol>
  <symbol id="icon-bow" viewBox="0 0 24 24"><path d="M12 12 C9 7 4 7.2 4.2 11.6 C4.4 16 9 16.4 12 12 Z" fill="#E8779E" stroke="#2B2541" stroke-width="1.6" stroke-linejoin="round" stroke-linecap="round"/><path d="M12 12 C15 7 20 7.2 19.8 11.6 C19.6 16 15 16.4 12 12 Z" fill="#E8779E" stroke="#2B2541" stroke-width="1.6" stroke-linejoin="round" stroke-linecap="round"/><path d="M10.6 13.4 L8.6 19.4 M13.4 13.4 L15.4 19.4" fill="none" stroke="#2B2541" stroke-width="1.6" stroke-linejoin="round" stroke-linecap="round"/><circle cx="12" cy="12" r="2" fill="#F4A9C2" stroke="#2B2541" stroke-width="1.6" stroke-linejoin="round" stroke-linecap="round"/></symbol>
</svg>
