<svg xmlns="http://www.w3.org/2000/svg" viewBox="0 0 1024 1024">
  <title>Purrtion app icon</title>
  <defs>
    <g id="silhouette">
      <path d="M17 26 L18.2 12 L29.5 18 Z M47 26 L45.8 12 L34.5 18 Z"/>
      <ellipse cx="32" cy="30.5" rx="16" ry="13.5"/>
      <rect x="7" y="33" width="50" height="5.5" rx="2.75"/>
      <path d="M9.6 36 H54.4 C53.4 47 46 54.5 32 54.5 C18 54.5 10.6 47 9.6 36 Z"/>
    </g>
  <clipPath id="tile"><rect x="100" y="100" width="824" height="824" rx="185"/></clipPath></defs>
  <g clip-path="url(#tile)">
    <rect x="100" y="100" width="824" height="824" fill="#F6F4FC"/>
    <g stroke="#E2DCF3"><line x1="32" y1="0" x2="32" y2="1024" stroke-width="1.5"/><line x1="64" y1="0" x2="64" y2="1024" stroke-width="1.5"/><line x1="96" y1="0" x2="96" y2="1024" stroke-width="1.5"/><line x1="128" y1="0" x2="128" y2="1024" stroke-width="1.5"/><line x1="160" y1="0" x2="160" y2="1024" stroke-width="3"/><line x1="192" y1="0" x2="192" y2="1024" stroke-width="1.5"/><line x1="224" y1="0" x2="224" y2="1024" stroke-width="1.5"/><line x1="256" y1="0" x2="256" y2="1024" stroke-width="1.5"/><line x1="288" y1="0" x2="288" y2="1024" stroke-width="1.5"/><line x1="320" y1="0" x2="320" y2="1024" stroke-width="3"/><line x1="352" y1="0" x2="352" y2="1024" stroke-width="1.5"/><line x1="384" y1="0" x2="384" y2="1024" stroke-width="1.5"/><line x1="416" y1="0" x2="416" y2="1024" stroke-width="1.5"/><line x1="448" y1="0" x2="448" y2="1024" stroke-width="1.5"/><line x1="480" y1="0" x2="480" y2="1024" stroke-width="3"/><line x1="512" y1="0" x2="512" y2="1024" stroke-width="1.5"/><line x1="544" y1="0" x2="544" y2="1024" stroke-width="1.5"/><line x1="576" y1="0" x2="576" y2="1024" stroke-width="1.5"/><line x1="608" y1="0" x2="608" y2="1024" stroke-width="1.5"/><line x1="640" y1="0" x2="640" y2="1024" stroke-width="3"/><line x1="672" y1="0" x2="672" y2="1024" stroke-width="1.5"/><line x1="704" y1="0" x2="704" y2="1024" stroke-width="1.5"/><line x1="736" y1="0" x2="736" y2="1024" stroke-width="1.5"/><line x1="768" y1="0" x2="768" y2="1024" stroke-width="1.5"/><line x1="800" y1="0" x2="800" y2="1024" stroke-width="3"/><line x1="832" y1="0" x2="832" y2="1024" stroke-width="1.5"/><line x1="864" y1="0" x2="864" y2="1024" stroke-width="1.5"/><line x1="896" y1="0" x2="896" y2="1024" stroke-width="1.5"/><line x1="928" y1="0" x2="928" y2="1024" stroke-width="1.5"/><line x1="960" y1="0" x2="960" y2="1024" stroke-width="3"/><line x1="992" y1="0" x2="992" y2="1024" stroke-width="1.5"/><line x1="0" y1="32" x2="1024" y2="32" stroke-width="1.5"/><line x1="0" y1="64" x2="1024" y2="64" stroke-width="1.5"/><line x1="0" y1="96" x2="1024" y2="96" stroke-width="1.5"/><line x1="0" y1="128" x2="1024" y2="128" stroke-width="1.5"/><line x1="0" y1="160" x2="1024" y2="160" stroke-width="3"/><line x1="0" y1="192" x2="1024" y2="192" stroke-width="1.5"/><line x1="0" y1="224" x2="1024" y2="224" stroke-width="1.5"/><line x1="0" y1="256" x2="1024" y2="256" stroke-width="1.5"/><line x1="0" y1="288" x2="1024" y2="288" stroke-width="1.5"/><line x1="0" y1="320" x2="1024" y2="320" stroke-width="3"/><line x1="0" y1="352" x2="1024" y2="352" stroke-width="1.5"/><line x1="0" y1="384" x2="1024" y2="384" stroke-width="1.5"/><line x1="0" y1="416" x2="1024" y2="416" stroke-width="1.5"/><line x1="0" y1="448" x2="1024" y2="448" stroke-width="1.5"/><line x1="0" y1="480" x2="1024" y2="480" stroke-width="3"/><line x1="0" y1="512" x2="1024" y2="512" stroke-width="1.5"/><line x1="0" y1="544" x2="1024" y2="544" stroke-width="1.5"/><line x1="0" y1="576" x2="1024" y2="576" stroke-width="1.5"/><line x1="0" y1="608" x2="1024" y2="608" stroke-width="1.5"/><line x1="0" y1="640" x2="1024" y2="640" stroke-width="3"/><line x1="0" y1="672" x2="1024" y2="672" stroke-width="1.5"/><line x1="0" y1="704" x2="1024" y2="704" stroke-width="1.5"/><line x1="0" y1="736" x2="1024" y2="736" stroke-width="1.5"/><line x1="0" y1="768" x2="1024" y2="768" stroke-width="1.5"/><line x1="0" y1="800" x2="1024" y2="800" stroke-width="3"/><line x1="0" y1="832" x2="1024" y2="832" stroke-width="1.5"/><line x1="0" y1="864" x2="1024" y2="864" stroke-width="1.5"/><line x1="0" y1="896" x2="1024" y2="896" stroke-width="1.5"/><line x1="0" y1="928" x2="1024" y2="928" stroke-width="1.5"/><line x1="0" y1="960" x2="1024" y2="960" stroke-width="3"/><line x1="0" y1="992" x2="1024" y2="992" stroke-width="1.5"/></g>
  </g>
  <rect x="100" y="100" width="824" height="824" rx="185" fill="none" stroke="#2B2541" stroke-opacity=".12" stroke-width="4"/>
  <g transform="translate(176 168) scale(10.75)">
  <!-- die-cut sticker edge -->
  <use href="#silhouette" fill="#FFFFFF" stroke="#FFFFFF" stroke-width="7" stroke-linejoin="round"/>
  <g stroke="#2B2541" stroke-width="2.8" stroke-linejoin="round" stroke-linecap="round">
    <!-- ears + head -->
    <path d="M17 26 L18.2 12 L29.5 18 Z M47 26 L45.8 12 L34.5 18 Z" fill="#FFFFFF"/>
    <path d="M20.4 16.4 L20.9 21.6 L25.8 18.9 Z M43.6 16.4 L43.1 21.6 L38.2 18.9 Z" fill="#F4A9C2" stroke="none"/>
    <ellipse cx="32" cy="30.5" rx="16" ry="13.5" fill="#FFFFFF"/>
    <!-- bowl body: a graduated beaker in disguise -->
    <path d="M9.6 36 H54.4 C53.4 47 46 54.5 32 54.5 C18 54.5 10.6 47 9.6 36 Z" fill="#E8779E"/>
    <rect x="7" y="33" width="50" height="5.5" rx="2.75" fill="#F4A9C2"/>
  </g>
  <!-- face -->
  <circle cx="25.6" cy="26.8" r="2.1" fill="#2B2541"/>
  <circle cx="38.4" cy="26.8" r="2.1" fill="#2B2541"/>
  <ellipse cx="21.6" cy="30.1" rx="2.4" ry="1.3" fill="#E8779E" opacity=".6"/>
  <ellipse cx="42.4" cy="30.1" rx="2.4" ry="1.3" fill="#E8779E" opacity=".6"/>
  <path d="M30 29.4 q1 1.2 2 0 q1 1.2 2 0" fill="none" stroke="#2B2541" stroke-width="1.6" stroke-linecap="round"/>
  <!-- measuring graduations -->
  <g stroke="#2B2541" stroke-width="2" stroke-linecap="round" opacity=".8">
    <line x1="41" y1="42" x2="48" y2="42"/>
    <line x1="44" y1="45.5" x2="48" y2="45.5"/>
    <line x1="41" y1="49" x2="46" y2="49"/>
  </g>
</g>
</svg>
